<svg xmlns="http://www.w3.org/2000/svg" viewBox="0 0 940.44 901.91"><defs><style>.cls-1{fill:#2baa66;}.cls-2{fill:#1d9cd7;}.cls-3{fill:#e66527;}.cls-4{fill:none;}.cls-5{fill:#fddb00;}</style></defs><title>logo-llegar-mas-alto</title><g id="Layer_2" data-name="Layer 2"><g id="Layer_1-2" data-name="Layer 1"><path class="cls-1" d="M395.11,655.57C338,715.88,334.42,748.47,469,745.09c129.7-3.26,84.38-47.46,37-98.55C449.82,586,435.15,613.33,395.11,655.57Z"/><path class="cls-2" d="M248.25,496.38c-72.52-23.94-84.28-10-63,60.67,13.13,43.54,43.74,95.7,82.23,128.85S327,719.05,326.1,613.06C325.54,544.43,313,517.76,248.25,496.38Z"/><path class="cls-3" d="M2.8,875.22Q0,872.42,0,867.08V799.2a11.28,11.28,0,0,1,3.11-8.33,11.43,11.43,0,0,1,8.46-3.12,11.8,11.8,0,0,1,8.64,3.12,11.13,11.13,0,0,1,3.18,8.33v59.87H52.63q11.06,0,11.06,9.53,0,4.85-2.73,7.12c-1.83,1.53-4.6,2.29-8.33,2.29H10.81Q5.59,878,2.8,875.22Z"/><path class="cls-3" d="M74.43,876.17c-2.16-1.74-3.24-4.34-3.24-7.82v-70q0-5.22,3.24-7.89a12.27,12.27,0,0,1,8.07-2.67,12.27,12.27,0,0,1,8.07,2.67q3.25,2.67,3.25,7.89v70c0,3.48-1.08,6.08-3.25,7.82a12.45,12.45,0,0,1-8.07,2.6A12.45,12.45,0,0,1,74.43,876.17Z"/><path class="cls-3" d="M162.53,860.21a9.3,9.3,0,0,1,1.84,6q0,5.09-5,7.75a49.24,49.24,0,0,1-10.23,3.63A45.8,45.8,0,0,1,138.31,879a39.6,39.6,0,0,1-18.18-3.94,28,28,0,0,1-11.95-11.32,34.3,34.3,0,0,1-4.2-17.29,35,35,0,0,1,4-16.84,28.86,28.86,0,0,1,11.19-11.57,31.92,31.92,0,0,1,16.2-4.13,30.19,30.19,0,0,1,15.39,3.82A26,26,0,0,1,161,828.56a35.13,35.13,0,0,1,3.62,16.4,6.82,6.82,0,0,1-1.33,4.51,4.78,4.78,0,0,1-3.88,1.59H125.85q.89,6.11,3.94,8.77t9,2.67a22.86,22.86,0,0,0,5.84-.7,55.84,55.84,0,0,0,6-2c1.27-.51,2.52-1,3.75-1.33a11.49,11.49,0,0,1,3.37-.57A5.86,5.86,0,0,1,162.53,860.21ZM128.9,832.06c-1.78,1.9-2.84,4.68-3.18,8.32h20q-.77-11.18-9.66-11.18A9.26,9.26,0,0,0,128.9,832.06Z"/><path class="cls-3" d="M238.61,817.06a9.88,9.88,0,0,1,3,7.56v45.76q0,15.51-9.35,23.52t-27.39,8a65.83,65.83,0,0,1-13.22-1.27A36.7,36.7,0,0,1,181.15,897a10.08,10.08,0,0,1-3.63-3.3,8.16,8.16,0,0,1-1.33-4.58,9.19,9.19,0,0,1,1.84-6,5.84,5.84,0,0,1,4.77-2.29c1.53,0,4.28.63,8.26,1.91q3.94,1.26,7,2a28.19,28.19,0,0,0,6.23.69q7.75,0,11.38-3.24t3.62-10.23v-4.83a19.23,19.23,0,0,1-8,6.67A25.93,25.93,0,0,1,200,876.23a27.65,27.65,0,0,1-14.49-3.81,26,26,0,0,1-9.92-10.87A35.84,35.84,0,0,1,172,845.21a36.27,36.27,0,0,1,3.56-16.4,26.42,26.42,0,0,1,9.92-11A27.23,27.23,0,0,1,200,813.94a25.8,25.8,0,0,1,11.44,2.54,19,19,0,0,1,8,7,9.11,9.11,0,0,1,3.24-6.8,11.81,11.81,0,0,1,7.82-2.48A11.42,11.42,0,0,1,238.61,817.06Zm-22.5,38.58q3.3-3.69,3.3-10.43t-3.3-10.55q-3.31-3.81-9.28-3.81t-9.16,3.75q-3.3,3.75-3.3,10.61,0,6.62,3.37,10.36a11.56,11.56,0,0,0,9.09,3.75Q212.8,859.32,216.11,855.64Z"/><path class="cls-3" d="M305.41,820.87q6.93,6.93,6.93,21v26.57a9.94,9.94,0,0,1-2.86,7.56c-1.91,1.83-4.56,2.73-8,2.73a10.57,10.57,0,0,1-7.31-2.54,9.53,9.53,0,0,1-3.11-6.86,14.11,14.11,0,0,1-6,7.12,19,19,0,0,1-10,2.54,25.73,25.73,0,0,1-11.69-2.61,20.26,20.26,0,0,1-8.2-7.24,18.91,18.91,0,0,1-3-10.49q0-6.74,3.5-10.74t11.12-5.79q7.62-1.77,20.59-1.78h3.43v-1.52q0-4.46-2-6.42c-1.36-1.32-3.64-2-6.86-2q-5.22,0-15.26,3.56a15.5,15.5,0,0,1-5,1,6.28,6.28,0,0,1-5.08-2.28,9.05,9.05,0,0,1-1.91-6,8.3,8.3,0,0,1,1.15-4.58,10,10,0,0,1,3.68-3.17,44.17,44.17,0,0,1,11.19-3.69,65.11,65.11,0,0,1,13.22-1.4Q298.48,813.94,305.41,820.87Zm-17.48,39.79a12,12,0,0,0,2.92-8.33v-1.52h-2q-8.13,0-11.57,1.46a5,5,0,0,0-3.43,4.89,6.66,6.66,0,0,0,1.84,4.83,6.31,6.31,0,0,0,4.77,1.91A9.65,9.65,0,0,0,287.93,860.66Z"/><path class="cls-3" d="M371.57,816.17c1.7,1.57,2.55,3.87,2.55,6.92,0,3.4-.79,5.85-2.35,7.38s-4.39,2.5-8.46,2.92l-3.81.38q-6.36.76-9.09,4t-2.73,8.83v21.74c0,3.48-1.08,6.08-3.25,7.82a13.82,13.82,0,0,1-16.14,0c-2.16-1.74-3.24-4.34-3.24-7.82v-44a9.18,9.18,0,0,1,3.24-7.5,11.9,11.9,0,0,1,7.82-2.67,10.93,10.93,0,0,1,7.56,2.54,9,9,0,0,1,2.86,7.12v2.41a16.9,16.9,0,0,1,6.68-8.64,19.17,19.17,0,0,1,9.72-3.31l1.78-.12A8.49,8.49,0,0,1,371.57,816.17Z"/><path class="cls-3" d="M503.66,790.93a11.47,11.47,0,0,1,3,8.27v69.15a10.34,10.34,0,0,1-2.8,7.63,11.05,11.05,0,0,1-14.68,0,10.18,10.18,0,0,1-2.86-7.63V831l-14.5,26.69a16.39,16.39,0,0,1-4.57,5.79,10.42,10.42,0,0,1-11.44,0,16.4,16.4,0,0,1-4.58-5.79l-14.37-25.93v36.61a10.19,10.19,0,0,1-2.86,7.56,11,11,0,0,1-14.74.07,10.18,10.18,0,0,1-2.86-7.63V799.2a11.3,11.3,0,0,1,3.11-8.27,11.22,11.22,0,0,1,14.18-1.21,15.44,15.44,0,0,1,4.7,5.66l23.39,44,23.26-44q3.95-7.62,10.68-7.63A10.5,10.5,0,0,1,503.66,790.93Z"/><path class="cls-3" d="M572.24,820.87q6.93,6.93,6.93,21v26.57a10,10,0,0,1-2.86,7.56c-1.91,1.83-4.56,2.73-7.95,2.73a10.57,10.57,0,0,1-7.31-2.54,9.49,9.49,0,0,1-3.11-6.86,14.11,14.11,0,0,1-6,7.12,19.05,19.05,0,0,1-10,2.54,25.8,25.8,0,0,1-11.7-2.61,20.32,20.32,0,0,1-8.2-7.24,19,19,0,0,1-3-10.49q0-6.74,3.49-10.74t11.13-5.79q7.62-1.77,20.59-1.78h3.43v-1.52q0-4.46-2-6.42c-1.36-1.32-3.65-2-6.87-2q-5.21,0-15.25,3.56a15.5,15.5,0,0,1-5,1,6.28,6.28,0,0,1-5.08-2.28,9.05,9.05,0,0,1-1.91-6,8.38,8.38,0,0,1,1.14-4.58,10,10,0,0,1,3.69-3.17,44,44,0,0,1,11.19-3.69,65.11,65.11,0,0,1,13.22-1.4Q565.31,813.94,572.24,820.87Zm-17.48,39.79a12,12,0,0,0,2.92-8.33v-1.52h-2q-8.14,0-11.57,1.46a5,5,0,0,0-3.43,4.89,6.66,6.66,0,0,0,1.84,4.83,6.31,6.31,0,0,0,4.77,1.91A9.65,9.65,0,0,0,554.76,860.66ZM551.33,808a5.49,5.49,0,0,1-4.07-1.66,5.23,5.23,0,0,1-1.65-3.81,6.05,6.05,0,0,1,1.39-3.81l9.41-13a12.25,12.25,0,0,1,4-3.62,9.21,9.21,0,0,1,11,1.4,8.12,8.12,0,0,1,2.8,6.16q0,4.46-4.7,7.63l-14.37,9.41A6.5,6.5,0,0,1,551.33,808Z"/><path class="cls-3" d="M602.17,877.76a31.83,31.83,0,0,1-10.29-4.07,6.18,6.18,0,0,1-2.8-3.05,11.17,11.17,0,0,1-1-4.83,8.57,8.57,0,0,1,1.85-5.66,5.76,5.76,0,0,1,4.64-2.22,14,14,0,0,1,3.56.44,35,35,0,0,1,4.06,1.46c2.72.94,5.11,1.66,7.19,2.16a34,34,0,0,0,7.94.77,12.49,12.49,0,0,0,5.4-1,3,3,0,0,0,2-2.73,2.6,2.6,0,0,0-1-2.16,10.32,10.32,0,0,0-3.62-1.46c-1.78-.47-4.79-1.12-9-2q-11.31-2.16-16.33-6.55t-5-12.39A16.81,16.81,0,0,1,593.34,824a23.91,23.91,0,0,1,10-7.38,36.43,36.43,0,0,1,14.24-2.67,44.3,44.3,0,0,1,11.12,1.4,35.8,35.8,0,0,1,9.6,3.94c2.62,1.53,3.94,4,3.94,7.37a9.35,9.35,0,0,1-1.91,6,5.78,5.78,0,0,1-4.7,2.41,19.07,19.07,0,0,1-7.88-2.16,43.17,43.17,0,0,0-5.41-2.1,19.75,19.75,0,0,0-5.53-.69,10.52,10.52,0,0,0-4.95.95,3,3,0,0,0-1.78,2.73c0,1.36.82,2.42,2.47,3.18a50.45,50.45,0,0,0,9.86,2.54q12.33,2.18,17.41,6.55t5.09,12.65a17.36,17.36,0,0,1-7.69,14.81Q629.51,879,616.54,879A69.47,69.47,0,0,1,602.17,877.76Z"/><path class="cls-3" d="M779,868.35a9.07,9.07,0,0,1-3.37,7.12,11.38,11.38,0,0,1-7.69,2.92,9.85,9.85,0,0,1-5.34-1.52,10.27,10.27,0,0,1-3.81-4.58l-5.72-12.84H711.88L706,872.29a9.93,9.93,0,0,1-9.28,6.1,11.88,11.88,0,0,1-7.82-2.92,9,9,0,0,1-3.49-7.12,11,11,0,0,1,1.14-4.7l33.56-68.9a11.83,11.83,0,0,1,4.9-5.28,14.24,14.24,0,0,1,7.18-1.84,14.39,14.39,0,0,1,7.12,1.84,11.79,11.79,0,0,1,5,5.28l33.56,68.9A11,11,0,0,1,779,868.35Zm-59.24-26.44h25.43l-12.72-28.35Z"/><path class="cls-3" d="M790.5,876.17c-2.16-1.74-3.24-4.34-3.24-7.82v-70q0-5.22,3.24-7.89a13.55,13.55,0,0,1,16.15,0q3.24,2.67,3.24,7.89v70c0,3.48-1.08,6.08-3.24,7.82a13.84,13.84,0,0,1-16.15,0Z"/><path class="cls-3" d="M868.49,870.26a7.27,7.27,0,0,1-3.43,6.61q-3.43,2.16-9.79,1.78l-3.56-.26q-11.43-.89-17.35-6.92t-5.91-16.85v-22.5h-3.69q-10.17,0-10.17-8.39t10.17-8.26h3.69V807.2a10.05,10.05,0,0,1,3-7.69,13.37,13.37,0,0,1,16.53,0,10.05,10.05,0,0,1,3.05,7.69v8.27h7q10.17,0,10.17,8.26t-10.17,8.39h-7v24.41a5.9,5.9,0,0,0,1.46,4.07,5.2,5.2,0,0,0,3.75,1.78l3.69.25Q868.48,863.14,868.49,870.26Z"/><path class="cls-3" d="M887.88,875a28.73,28.73,0,0,1-12.08-11.37,37.1,37.1,0,0,1,0-34.52,28.63,28.63,0,0,1,12-11.25,43.91,43.91,0,0,1,36.36,0,28.65,28.65,0,0,1,12,11.25,37.17,37.17,0,0,1,0,34.52,28.87,28.87,0,0,1-12,11.37,43.06,43.06,0,0,1-36.29,0Zm30.19-28.66q0-15.76-12.08-15.77t-12.07,15.77q0,15.76,12.07,15.76T918.07,846.36Z"/><circle class="cls-4" cx="387.17" cy="324.07" r="70.05" transform="translate(-60.39 557.75) rotate(-67.5)"/><path class="cls-4" d="M651.09,243c-.54,1.48-1.12,2.94-1.72,4.4A25.22,25.22,0,0,0,651.09,243Z"/><path class="cls-5" d="M758.37,121c-25.18-23-39-27.73-36.48-71.45,2.54-43.4,4.18-74.73-66.44-21.35-21.2,16-47,13.63-68.71,9.63-10.79-2-20.56-4.39-28.2-5.12-23-2.19-27.1,7-4.93,55.44a27.41,27.41,0,0,1,2,6.35c57.66,7.67,102,54.68,102,111.56a107.42,107.42,0,0,1-6.36,36.39l-.2.56a25.22,25.22,0,0,1-1.72,4.4,111.7,111.7,0,0,1-19.55,31.14c-.43.95-.86,1.91-1.29,2.9-35.71,82.06-72.76,302.28-27.29,393.23,34.19,68.38,179.63-147.31,94.08-355-.8-4.9-8.4-13.5-4.83-39.88,5.47-40.52,8.75-96.36,48.17-110.59S783.56,143.94,758.37,121Z"/><path class="cls-1" d="M651.09,243l.2-.56-.06.1C651.19,242.66,651.13,242.8,651.09,243Z"/><path class="cls-5" d="M648.26,249.26c-.34.5-3.56,4.47-5.76,7.36-1,1.2-2,2.55-3,4a119.62,119.62,0,0,0-9.66,17.84,111.7,111.7,0,0,0,19.55-31.14A17.93,17.93,0,0,1,648.26,249.26Z"/><path class="cls-3" d="M555.6,94.45c3.44,17.62-10.38,35.4-16.36,43.33-13.31,17.66-20.3,21.12-29.55,21.71-21-3.66-45.79-3.62-72.46-.2-35.11,4.49-73.53,14.85-111.1,30.44-78.93,32.74-150.4,113.73-150.4,226.86,0,38,120.56,46,247.58-4.38A254.42,254.42,0,0,0,543,314.32c19.31-29.9,29.78-60.68,31.15-85.84a7.33,7.33,0,0,0,.11-2.39V226a83.23,83.23,0,0,0-1.47-19.25c-.87-22,3.69-24.22,18.18-27.54,40.5-9.27,46.37,4.56,57.07,32,5,12.93,5.22,23.75,3.18,31.22l.06-.1A107.42,107.42,0,0,0,657.65,206C657.65,149.13,613.26,102.12,555.6,94.45ZM387.17,394.12a70.05,70.05,0,1,1,70.05-70.05A70.06,70.06,0,0,1,387.17,394.12Z"/><path class="cls-3" d="M151.25,482a2.65,2.65,0,0,1-1.86.87L110,486.44a2.4,2.4,0,0,1-1.88-.57,2.73,2.73,0,0,1-.87-1.86l-2-22.95a2.53,2.53,0,0,1,.4-1.81,2.07,2.07,0,0,1,1.58-.78,2,2,0,0,1,1.62.49,2.56,2.56,0,0,1,.73,1.71l1.84,20.5,15.25-1.37-1.72-19.23a2.56,2.56,0,0,1,.4-1.82,2.14,2.14,0,0,1,1.58-.78,2,2,0,0,1,1.63.49,2.61,2.61,0,0,1,.72,1.72l1.73,19.23,18-1.62a2.74,2.74,0,0,1,2,.49,2.42,2.42,0,0,1,.89,1.8A2.49,2.49,0,0,1,151.25,482Z"/><path class="cls-3" d="M145.88,419.72q-5,4-13.78,3l-24.56-2.79a2.65,2.65,0,0,1-1.83-.91,2.53,2.53,0,0,1-.5-2,2.42,2.42,0,0,1,.92-1.74,2.7,2.7,0,0,1,2-.47l25,2.83q6.45.74,10.07-2.07c2.42-1.87,3.85-4.86,4.32-9s-.27-7.34-2.2-9.68-5.05-3.76-9.35-4.25l-25-2.83a2.6,2.6,0,0,1-1.83-.94,2.82,2.82,0,0,1,.42-3.75,2.7,2.7,0,0,1,2-.47l24.55,2.78q8.72,1,12.74,6t3,13.62Q150.9,415.77,145.88,419.72Z"/><path class="cls-3" d="M130.52,308.94a2.84,2.84,0,0,1,2,0l37.63,12.87a2.78,2.78,0,0,1,1.61,1.25,2.44,2.44,0,0,1,.08,2,2.64,2.64,0,0,1-1.69,1.63l-41.61,13.53,31.61,10.81a2.75,2.75,0,0,1,1.61,1.25,2.33,2.33,0,0,1,.1,1.94,2.25,2.25,0,0,1-1.26,1.45,2.82,2.82,0,0,1-2,0L121,342.81a2.76,2.76,0,0,1-1.6-1.25,2.4,2.4,0,0,1-.08-2,2.67,2.67,0,0,1,1.71-1.68l41.58-13.48L131,313.58a2.76,2.76,0,0,1-1.6-1.25,2.29,2.29,0,0,1-.1-1.94A2.24,2.24,0,0,1,130.52,308.94Z"/><path class="cls-3" d="M186.65,290.8a2.41,2.41,0,0,1-1.94-.34l-33.58-20.59a2.4,2.4,0,0,1-1.18-1.58,2.66,2.66,0,0,1,.42-2l6.45-10.53q5.6-9.12,13.57-11.09t17.06,3.59q9.09,5.56,11,13.62T194.71,279l-6.45,10.53A2.7,2.7,0,0,1,186.65,290.8ZM190.78,277q9.08-14.79-6.14-24.11t-24.22,5.49l-5,8.09,30.36,18.62Z"/><path class="cls-3" d="M251.33,206a2,2,0,0,1,.62,1.62,2.55,2.55,0,0,1-.75,1.69,2.25,2.25,0,0,1-2.63.55L238.1,206,221.53,223.2l4.19,10.38a2.24,2.24,0,0,1-.45,2.64,2.62,2.62,0,0,1-1.71.82,2.09,2.09,0,0,1-1.68-.57,2.24,2.24,0,0,1-.55-.89L205,194.72a2.77,2.77,0,0,1-.16-1.74,3.2,3.2,0,0,1,.83-1.49,3.11,3.11,0,0,1,1.52-.9,3,3,0,0,1,1.73.07l41.42,14.81A2.42,2.42,0,0,1,251.33,206Zm-31.56,12.83,13.93-14.44L210.42,196Z"/><path class="cls-3" d="M280.59,182.79a18.13,18.13,0,0,1-10.32-2.54,30.62,30.62,0,0,1-13.56-20.05,18.08,18.08,0,0,1,1.49-10.51,21.09,21.09,0,0,1,7.53-8.41,23.34,23.34,0,0,1,7.4-3.36,19.23,19.23,0,0,1,7.59-.46,2.9,2.9,0,0,1,2.08,1.26,2.39,2.39,0,0,1,.44,1.56,1.49,1.49,0,0,1-.62,1.22,3.64,3.64,0,0,1-1.91.46,23.73,23.73,0,0,0-6.83.35,17.12,17.12,0,0,0-5.57,2.55q-6.09,4.11-6.69,10.28t4.3,13.41q4.93,7.32,10.88,9t12-2.39a17.16,17.16,0,0,0,4.42-4.2,23.44,23.44,0,0,0,2.89-6.23,3.62,3.62,0,0,1,1.14-1.6,1.5,1.5,0,0,1,1.35-.15,2.49,2.49,0,0,1,1.3,1,3,3,0,0,1,.4,2.39,19.62,19.62,0,0,1-3.26,6.89,23.41,23.41,0,0,1-5.87,5.6A21.05,21.05,0,0,1,280.59,182.79Z"/><path class="cls-3" d="M332.78,154.67a2.63,2.63,0,0,1-1.43-1.46L314.88,117a2.68,2.68,0,0,1-.17-2,2.57,2.57,0,0,1,1.43-1.45,2.51,2.51,0,0,1,2-.12,2.66,2.66,0,0,1,1.43,1.46l16.48,36.2a2.68,2.68,0,0,1,.16,2,2.84,2.84,0,0,1-3.46,1.57Z"/><path class="cls-3" d="M376.13,136.24a18.13,18.13,0,0,1-8.79-5.88A27.45,27.45,0,0,1,362,119.3a28.23,28.23,0,0,1-.65-12.36,17.85,17.85,0,0,1,4.86-9.37,22.85,22.85,0,0,1,21-5.38A17.88,17.88,0,0,1,396,98.08a30.94,30.94,0,0,1,5.95,23.4,18.25,18.25,0,0,1-4.88,9.41,22.4,22.4,0,0,1-20.91,5.35Zm19.57-11.61q2.66-5.58.47-14.14T389,98.33q-5-3.6-11.91-1.83t-9.52,7.34q-2.65,5.59-.48,14.09c1.44,5.65,3.84,9.71,7.19,12.14s7.31,3.08,11.89,1.91S393.93,128.36,395.7,124.63ZM375.34,89.34a1.42,1.42,0,0,1-1-.13,1.11,1.11,0,0,1-.61-.75,1.37,1.37,0,0,1,.17-1.09l4.39-8.15a3,3,0,0,1,1.88-1.58,2.2,2.2,0,0,1,1.66.22,2.06,2.06,0,0,1,1,1.31,2.82,2.82,0,0,1-.9,2.63l-5.83,7.09A1.82,1.82,0,0,1,375.34,89.34Z"/><path class="cls-3" d="M473,81.68a2.74,2.74,0,0,1,.68,1.91l1,39.76a2.78,2.78,0,0,1-.62,1.94,2.42,2.42,0,0,1-1.85.77,2.62,2.62,0,0,1-2.11-1L443,90.71l.81,33.4a2.72,2.72,0,0,1-.61,1.93,2.32,2.32,0,0,1-1.79.77,2.23,2.23,0,0,1-1.79-.68,2.84,2.84,0,0,1-.68-1.91l-1-39.76a2.73,2.73,0,0,1,.62-1.94,2.41,2.41,0,0,1,1.85-.77,2.68,2.68,0,0,1,2.17,1l27.06,34.34-.82-33.4a2.73,2.73,0,0,1,.62-1.94,2.3,2.3,0,0,1,1.79-.77A2.21,2.21,0,0,1,473,81.68Z"/></g></g></svg>